<?xml version="1.0" encoding="UTF-8"?>
<svg version="1.1" xmlns="http://www.w3.org/2000/svg" width="1600" height="896">
<path d="M0 0 C528 0 1056 0 1600 0 C1600 295.68 1600 591.36 1600 896 C1072 896 544 896 0 896 C0 600.32 0 304.64 0 0 Z " fill="#000000" transform="translate(0,0)"/>
<path d="M0 0 C1.05445313 0.56460937 2.10890625 1.12921875 3.1953125 1.7109375 C14.94872942 8.24743307 25.2592181 16.77189083 35 26 C36.43472656 27.33804688 36.43472656 27.33804688 37.8984375 28.703125 C59.26799807 49.03616687 73.75674945 76.54666412 81 105 C81.19609863 105.76489746 81.39219727 106.52979492 81.59423828 107.31787109 C84.52969206 119.33090964 85.37123728 131.17834958 85.375 143.5 C85.37690338 144.16805664 85.37880676 144.83611328 85.38076782 145.52441406 C85.36634446 190.16265754 66.64762149 230.27386983 36 262 C35.38898438 262.66257812 34.77796875 263.32515625 34.1484375 264.0078125 C25.8781553 272.76697837 15.36585532 279.96499647 5 286 C4.3591748 286.37624512 3.71834961 286.75249023 3.05810547 287.14013672 C-25.63446651 303.76481472 -56.23258948 309.56957667 -89 309 C-90.28132812 308.98324219 -91.56265625 308.96648437 -92.8828125 308.94921875 C-103.93339656 308.52419629 -114.38324758 305.91582602 -125 303 C-126.15072998 302.6891748 -126.15072998 302.6891748 -127.32470703 302.37207031 C-146.40234809 297.07061848 -164.58083654 287.39252705 -180 275 C-180.55864746 274.55269531 -181.11729492 274.10539062 -181.69287109 273.64453125 C-215.73495698 246.12565288 -238.47427697 207.11284345 -243.25 163.375 C-247.08362964 122.34349705 -237.87365787 85.04191105 -215.29931641 50.52441406 C-214 49 -214 49 -211 48 C-209.30859375 49.1171875 -209.30859375 49.1171875 -207.4375 50.875 C-206.73496094 51.52210938 -206.03242187 52.16921875 -205.30859375 52.8359375 C-204.54675781 53.55007813 -203.78492188 54.26421875 -203 55 C-201.33608963 56.50305691 -199.66934987 58.00298671 -198 59.5 C-196.7315625 60.6446875 -196.7315625 60.6446875 -195.4375 61.8125 C-192.67881248 64.28824521 -189.88893061 66.72582887 -187.09375 69.16015625 C-183.02704588 72.73369663 -179.01654397 76.3702953 -175 80 C-176.37208355 83.66360453 -178.03058227 87.0977572 -179.81762695 90.56933594 C-194.54271704 119.19673342 -197.17623844 150.29121056 -187.375 181 C-178.76610937 206.2910076 -162.46185445 226.71904939 -140 241 C-139.16984375 241.55300781 -138.3396875 242.10601563 -137.484375 242.67578125 C-123.1373478 251.86833014 -105.01502455 257.37271799 -88 258 C-86.94425781 258.0515625 -85.88851563 258.103125 -84.80078125 258.15625 C-53.59906339 258.96580809 -23.20931881 248.56489707 -0.40063477 226.94458008 C22.20302315 204.57712153 34.03372724 175.37623268 34.3125 143.6875 C34.21150728 115.69190475 24.71253173 91.42456396 7 70 C6.10667969 68.87658203 6.10667969 68.87658203 5.1953125 67.73046875 C-7.65534489 52.14366661 -26.21713384 42.24794741 -45 35.8125 C-45.72348633 35.56218018 -46.44697266 35.31186035 -47.19238281 35.05395508 C-74.18402688 26.12618198 -105.03197093 29.48121292 -130.24365234 42.09716797 C-139.71232091 46.96443741 -148.71522986 52.49301832 -156.13671875 60.2265625 C-158 62 -158 62 -160.3125 62.1875 C-163.69661662 60.69219266 -165.60662045 58.62347573 -168.125 55.953125 C-170.55460318 53.42228835 -173.17755507 51.17274746 -175.83203125 48.8828125 C-179.10557499 46.03984298 -182.31220688 43.12391141 -185.5234375 40.2109375 C-188.4861864 37.56595978 -191.52783417 35.02268114 -194.6015625 32.5078125 C-196 31 -196 31 -196 28 C-186.99315686 16.61926021 -173.3950454 8.17225045 -161 1 C-159.94296875 0.35417969 -158.8859375 -0.29164063 -157.796875 -0.95703125 C-109.92289862 -28.66491484 -47.70294349 -26.27002434 0 0 Z " fill="#C2F629" transform="translate(1111,338)"/>
<path d="M0 0 C1.6934447 -0.01147167 3.38685462 -0.03184653 5.08007812 -0.06152344 C17.44999183 -0.27706072 28.55246481 1.08782951 40.49633789 4.29516602 C41.48384033 4.5467749 42.47134277 4.79838379 43.48876953 5.05761719 C72.81085218 12.76854555 96.69798643 27.56093526 118.49633789 48.29516602 C119.14086914 48.8868457 119.78540039 49.47852539 120.44946289 50.08813477 C140.77340442 69.31990187 154.44788532 97.5903889 161.49633789 124.29516602 C161.81175537 125.44033691 161.81175537 125.44033691 162.13354492 126.60864258 C166.43047568 142.76891266 169.61127167 168.02365298 164.49633789 184.29516602 C158.473099 183.63637426 152.65618917 182.55300139 146.74633789 181.22875977 C145.84761963 181.03041031 144.94890137 180.83206085 144.02294922 180.62770081 C141.17997729 179.99943433 138.33815456 179.36613524 135.49633789 178.73266602 C133.55760982 178.30329525 131.61880841 177.87425548 129.67993164 177.44555664 C124.95121047 176.39925172 120.22351258 175.34843487 115.49633789 174.29516602 C115.47266647 173.63523651 115.44899506 172.97530701 115.42460632 172.29537964 C114.14274575 137.04030021 106.08141779 109.40838617 81.49633789 83.29516602 C80.9459082 82.6802832 80.39547852 82.06540039 79.82836914 81.43188477 C63.56281751 63.96147745 36.72361337 52.33253929 13.21166992 51.12670898 C-0.92936112 50.67054669 -14.77785174 50.59112139 -28.50366211 54.29516602 C-29.58647461 54.56200195 -30.66928711 54.82883789 -31.78491211 55.10375977 C-44.73128059 58.63887252 -56.93222711 65.0729388 -67.50366211 73.29516602 C-68.3944043 73.97192383 -69.28514648 74.64868164 -70.20288086 75.34594727 C-92.17584267 92.59947237 -106.88475104 117.71623099 -111.50366211 145.29516602 C-111.99687573 149.95329464 -112.26141205 154.61787646 -112.50366211 159.29516602 C-112.57069336 160.52750977 -112.63772461 161.75985352 -112.70678711 163.02954102 C-113.18890113 179.90353189 -109.60489122 196.02217073 -102.50366211 211.29516602 C-101.8269043 212.82657227 -101.8269043 212.82657227 -101.13647461 214.38891602 C-88.51062199 241.49526627 -64.8437083 261.65481676 -37.03881836 271.90844727 C-35.53190898 272.38613245 -34.01915802 272.84546484 -32.50366211 273.29516602 C-31.35736328 273.63789551 -30.21106445 273.980625 -29.0300293 274.33374023 C-19.1393148 277.13334817 -9.87627238 277.9488224 0.37133789 277.79516602 C1.11335449 277.7889624 1.85537109 277.78275879 2.61987305 277.77636719 C21.63759739 277.59031979 36.49613623 273.71398757 53.49633789 265.29516602 C54.52500977 264.80016602 55.55368164 264.30516602 56.61352539 263.79516602 C83.64149277 250.00698556 101.29406147 224.61308027 110.49633789 196.29516602 C120.86062628 197.83719501 131.03250605 200.11466573 141.24633789 202.42016602 C142.92595842 202.79676691 144.6056455 203.17307112 146.28540039 203.54907227 C150.35648712 204.46102318 154.42665599 205.37696717 158.49633789 206.29516602 C160.06725197 211.1523835 158.40930654 214.5827859 156.74633789 219.23266602 C156.43414307 220.11003418 156.12194824 220.98740234 155.80029297 221.89135742 C147.69031839 243.79392476 135.01987355 262.08404247 119.49633789 279.29516602 C118.82086914 280.04411133 118.14540039 280.79305664 117.44946289 281.56469727 C107.95462157 291.5261654 96.40576803 299.52630346 84.49633789 306.29516602 C83.8638916 306.65852051 83.23144531 307.021875 82.57983398 307.39624023 C60.99591017 319.69619196 36.26974712 328.34933172 11.21899414 328.49829102 C10.44937851 328.50399109 9.67976288 328.50969116 8.88682556 328.51556396 C7.26408229 328.52495234 5.64132048 328.5315232 4.01855469 328.53540039 C1.59607419 328.54501818 -0.8255237 328.57606356 -3.24780273 328.60766602 C-44.81951448 328.88846468 -84.54127166 310.75687742 -113.90698242 281.86108398 C-115.2842144 280.51038584 -116.68481831 279.18359454 -118.08959961 277.86157227 C-141.01533718 255.9413495 -155.38996063 224.27174251 -161.09692383 193.47436523 C-161.44108027 191.63046346 -161.8148189 189.7921205 -162.19506836 187.95532227 C-169.53334284 147.2612547 -157.53366488 103.98293314 -134.50366211 70.29516602 C-126.49543676 58.8595644 -117.35725995 48.11486988 -106.50366211 39.29516602 C-105.50979492 38.4637207 -104.51592773 37.63227539 -103.49194336 36.77563477 C-83.94104885 20.69017841 -60.40572642 9.02316232 -35.81616211 3.04516602 C-35.15165039 2.88177734 -34.48713867 2.71838867 -33.80249023 2.55004883 C-22.70121433 0.0053282 -11.33104486 0.05310581 0 0 Z " fill="#C2F629" transform="translate(544.503662109375,317.704833984375)"/>
<path d="M0 0 C5.04939802 2.35058184 8.49965922 5.99931844 11 11 C11.0999845 12.86157254 11.13509693 14.7267554 11.14044189 16.59100342 C11.14615204 17.77989166 11.15186218 18.96877991 11.15774536 20.19369507 C11.15886322 21.50488312 11.15998108 22.81607117 11.16113281 24.16699219 C11.16576025 25.55655042 11.17078481 26.94610737 11.17617798 28.33566284 C11.18931321 32.11681793 11.19574939 35.89795525 11.20018864 39.6791296 C11.20311822 42.04141161 11.20722287 44.40368876 11.21169281 46.76596832 C11.22537217 54.15671541 11.23503605 61.54745138 11.2388947 68.93821025 C11.24337336 77.46987646 11.26091042 86.0013823 11.2898953 94.53299975 C11.31151856 101.1267132 11.32159936 107.72038155 11.32293582 114.31413007 C11.32398361 118.25245909 11.32988547 122.19063745 11.34775543 126.12892914 C11.36424682 129.83567802 11.36638656 133.54216318 11.35761642 137.2489357 C11.3564801 139.2540402 11.37019019 141.25913598 11.3843689 143.26419067 C11.37879974 144.46435822 11.37323059 145.66452576 11.36749268 146.90106201 C11.36895924 147.94009045 11.3704258 148.97911888 11.3719368 150.04963303 C10.92923529 153.56133691 9.80549523 155.97189903 8 159 C6.015625 160.0625 6.015625 160.0625 4 160 C2.359375 158.8125 2.359375 158.8125 0.75 157 C-1.67635198 154.39334586 -4.11245314 151.9486767 -6.8125 149.625 C-10.8740559 146.12666767 -14.84038973 142.53019398 -18.80078125 138.91796875 C-21.04822519 136.87480508 -21.04822519 136.87480508 -24 135 C-24.38590336 132.80566883 -24.38590336 132.80566883 -24.40113831 130.02314758 C-24.42033073 128.44392265 -24.42033073 128.44392265 -24.43991089 126.83279419 C-24.43855133 125.672789 -24.43719177 124.51278381 -24.43579102 123.31762695 C-24.45090477 121.49063011 -24.45090477 121.49063011 -24.46632385 119.62672424 C-24.48999316 116.27920108 -24.49985976 112.93223606 -24.50177121 109.58466744 C-24.50461821 106.78920787 -24.51565362 103.99380195 -24.5262875 101.19836301 C-24.55073752 94.59909268 -24.55803913 87.99994517 -24.5559082 81.40063477 C-24.55410858 74.59989154 -24.585704 67.79986435 -24.63313919 60.99930221 C-24.67242719 55.15797778 -24.6884572 49.31688662 -24.68654197 43.47543114 C-24.68577832 39.98792048 -24.69425549 36.50104493 -24.72607613 33.01366615 C-24.7606429 29.11861146 -24.74684254 25.22452861 -24.72875977 21.3293457 C-24.74561829 20.17946167 -24.76247681 19.02957764 -24.77984619 17.84484863 C-24.70623589 11.60364385 -24.11877103 7.83431163 -19.67750454 3.29310894 C-13.77893251 -1.25382136 -7.15269558 -0.67368412 0 0 Z " fill="#C1F529" transform="translate(898,198)"/>
<path d="M0 0 C1.74763572 0.21251974 3.49483594 0.42883396 5.24072266 0.65527344 C7.30823192 0.9135749 9.37886037 1.14711486 11.45068359 1.36816406 C35.48433529 4.17355439 35.48433529 4.17355439 42.49853516 10.1171875 C46.64006125 15.3720045 49.06559955 21.41215682 51.5390625 27.58300781 C53.92547668 33.16460087 56.95791646 38.37805311 59.953125 43.64813232 C61.69480963 46.72908227 63.39093116 49.8349612 65.09375 52.9375 C68.51744442 59.15072161 71.9964757 65.33149984 75.5 71.5 C80.62613636 80.52774529 85.67227908 89.59783509 90.6875 98.6875 C91.04005859 99.3259082 91.39261719 99.96431641 91.75585938 100.62207031 C92.75882931 102.43889484 93.76054357 104.25640471 94.76171875 106.07421875 C95.33881592 107.12182373 95.91591309 108.16942871 96.51049805 109.2487793 C97.00203369 110.15668213 97.49356934 111.06458496 98 112 C98.38905518 112.70229736 98.77811035 113.40459473 99.17895508 114.12817383 C100.59439927 117.35511722 100.51517691 120.58530174 100 124 C97.35426901 129.62217836 93.28781365 132.14953795 88 135 C87.34773437 135.36867188 86.69546875 135.73734375 86.0234375 136.1171875 C83.75898745 137.10515219 82.08885945 137.3317744 79.625 137.375 C78.89539063 137.40335938 78.16578125 137.43171875 77.4140625 137.4609375 C73.18449235 136.65334967 70.21485733 134.65393581 67.65576172 131.16992188 C66.23147642 128.83859454 64.91870447 126.46878127 63.625 124.0625 C63.11952637 123.15081055 62.61405273 122.23912109 62.09326172 121.29980469 C60.98151405 119.29017123 59.87652228 117.27678957 58.77734375 115.26025391 C56.91670503 111.84720864 55.0388095 108.44394612 53.15625 105.04296875 C50.77848386 100.74459116 48.40533191 96.44373361 46.03816223 92.13951111 C41.47575111 83.84505054 36.86065487 75.5808924 32.22583008 67.32666016 C28.54322026 60.76526156 24.88562221 54.19045245 21.2409668 47.60791016 C15.67634356 37.55791458 10.0732636 27.5396153 4.2355957 17.64501953 C3.61237427 16.58323486 3.61237427 16.58323486 2.9765625 15.5 C2.43636475 14.58734375 2.43636475 14.58734375 1.88525391 13.65625 C0.176874 10.45998709 -0.11392708 7.86096879 -0.0625 4.3125 C-0.05347656 3.50425781 -0.04445313 2.69601562 -0.03515625 1.86328125 C-0.02355469 1.24839844 -0.01195312 0.63351562 0 0 Z " fill="#C2F629" transform="translate(717,528)"/>
<path d="M0 0 C5.11395556 2.72066951 9.05846542 6.80820877 10.89453125 12.31640625 C11.73521451 18.40535499 10.86755831 22.55642868 7.328125 27.58984375 C3.96135124 31.6446503 0.7211567 34.04572469 -4.59375 34.5546875 C-10.65203228 34.71389547 -14.40503339 34.55826255 -19.10546875 30.31640625 C-23.65029333 25.26660116 -25.5957068 21.39015446 -25.41796875 14.625 C-24.70623337 9.36705487 -21.92551232 5.8256348 -17.98046875 2.44140625 C-12.63754829 -1.50770887 -6.40773454 -2.08043329 0 0 Z " fill="#C0F329" transform="translate(807.10546875,387.68359375)"/>
<path d="M0 0 C4.12881021 2.40296754 7.08465049 4.87121909 8.75 9.4375 C9.56381164 15.62390882 9.65381252 21.25328642 7.25 27.0625 C2.50936197 31.56610613 -1.8449421 33.65530041 -8.4375 33.8125 C-13.72000958 33.56210582 -16.80641555 32.6748581 -20.875 29.1875 C-25.07761555 24.32131358 -26.9153164 20.15408081 -26.65625 13.7421875 C-25.63065734 7.92392146 -22.22969879 3.80504554 -17.5 0.4375 C-11.64794778 -2.80752895 -6.07449306 -2.62619061 0 0 Z " fill="#C0F329" transform="translate(808.25,449.5625)"/>
</svg>
