<?xml version="1.0" encoding="UTF-8"?>
<svg version="1.1" xmlns="http://www.w3.org/2000/svg" width="1600" height="896">
<path d="M0 0 C528 0 1056 0 1600 0 C1600 295.68 1600 591.36 1600 896 C1072 896 544 896 0 896 C0 600.32 0 304.64 0 0 Z " fill="#000000" transform="translate(0,0)"/>
<path d="M0 0 C3.42889746 2.90496608 6.73343487 5.91431958 10 9 C10.75023437 9.68578125 11.50046875 10.3715625 12.2734375 11.078125 C21.63057296 19.94277964 28.3612643 30.37715005 34.375 41.6875 C34.77968506 42.44659668 35.18437012 43.20569336 35.60131836 43.98779297 C49.65511016 71.25232469 52.41935677 104.73562968 43.5234375 134.05859375 C32.62044896 167.73486328 11.13660304 195.59560155 -20.69921875 211.9453125 C-39.06741079 220.99470203 -57.99679569 225.64620667 -78.4375 225.5625 C-79.17234619 225.5620166 -79.90719238 225.5615332 -80.66430664 225.56103516 C-111.32857985 225.421878 -137.35025768 213.90739557 -161 195 C-162.05767578 194.16082031 -162.05767578 194.16082031 -163.13671875 193.3046875 C-185.67300265 174.76922703 -200.40256532 144.13467409 -203.79931641 115.47924805 C-206.42965163 82.98404834 -200.55804249 51.67005794 -181 25 C-177.54894544 26.50491192 -175.13275903 28.51583979 -172.375 31.0625 C-171.06208984 32.26519531 -171.06208984 32.26519531 -169.72265625 33.4921875 C-168.82417969 34.31976563 -167.92570313 35.14734375 -167 36 C-165.27321887 37.56513595 -163.54412042 39.12771978 -161.8125 40.6875 C-161.05582031 41.37199219 -160.29914062 42.05648437 -159.51953125 42.76171875 C-156.38150887 45.54945026 -153.19448152 48.27733292 -150 51 C-150.37753418 51.74552124 -150.37753418 51.74552124 -150.76269531 52.50610352 C-161.98401051 74.86387979 -167.32425242 97.37415014 -161.2265625 122.36328125 C-153.02747566 146.67331261 -138.13445928 165.0475488 -115.21386719 176.94726562 C-94.58579338 186.75629234 -69.42284732 186.72765969 -48.07861328 179.33447266 C-27.20038503 171.70163009 -10.61835678 155.88091056 -1 136 C0.20831035 133.27950847 1.31651216 130.53196993 2.375 127.75 C2.61355713 127.12544922 2.85211426 126.50089844 3.09790039 125.85742188 C10.57299245 105.13139865 8.33742713 82.39046696 -0.75512695 62.59765625 C-10.85580998 41.93525289 -27.12323341 26.80004474 -48.87109375 19.02734375 C-56.90071082 16.39090269 -64.53353738 14.39295818 -73 14 C-74.69962891 13.92072266 -74.69962891 13.92072266 -76.43359375 13.83984375 C-96.13308845 13.36836781 -112.8755388 19.01088701 -129 30 C-130.66030821 31.01052185 -132.32523751 32.01361854 -134 33 C-134.845625 32.21496094 -135.69125 31.42992187 -136.5625 30.62109375 C-142.63534033 24.99297936 -148.73156522 19.41064897 -155 14 C-156.50080257 12.68841779 -158.00081067 11.3759259 -159.5 10.0625 C-160.1703125 9.47597656 -160.840625 8.88945312 -161.53125 8.28515625 C-162.0159375 7.86105469 -162.500625 7.43695313 -163 7 C-161.73407275 3.20221824 -159.51456654 1.70646618 -156.4375 -0.625 C-155.86177246 -1.06231445 -155.28604492 -1.49962891 -154.69287109 -1.95019531 C-109.18955937 -35.63746159 -44.40656387 -35.90607309 0 0 Z " fill="#C2F629" transform="translate(779,406)"/>
<path d="M0 0 C0.80593597 0.00392761 1.61187195 0.00785522 2.44223022 0.01190186 C15.76563201 0.10314788 28.14737247 1.39514411 40.875 5.5625 C41.60895996 5.79243652 42.34291992 6.02237305 43.09912109 6.25927734 C72.79748038 15.73405307 98.20619523 37.68697754 113.03515625 64.94921875 C127.36127674 92.759639 133.41992658 125.89041133 124.875 156.5625 C124.64925293 157.37444824 124.42350586 158.18639648 124.19091797 159.02294922 C119.87441263 174.00965537 113.68937783 187.68913103 104.875 200.5625 C102.06148214 199.27354283 99.9424293 197.89981495 97.703125 195.76953125 C97.1248999 195.22482178 96.5466748 194.6801123 95.95092773 194.11889648 C95.34837158 193.54341064 94.74581543 192.9679248 94.125 192.375 C92.8718517 191.19450738 91.61795039 190.01481358 90.36328125 188.8359375 C89.76209473 188.2697168 89.1609082 187.70349609 88.54150391 187.12011719 C83.83247986 182.7187733 78.95436391 178.53075306 73.875 174.5625 C75.23588487 170.97647163 76.8628098 167.68264022 78.6875 164.3125 C88.37699223 144.60021606 90.71598615 121.39638045 84.265625 100.16015625 C75.16293215 76.61077392 60.26507563 58.97848843 37.5 47.75 C30.57264444 44.76638486 23.20440389 43.22938784 15.875 41.5625 C15.22563477 41.38525391 14.57626953 41.20800781 13.90722656 41.02539062 C-4.53450993 36.8248221 -26.00989939 42.97609598 -41.75 52.3125 C-61.32430836 64.92967467 -75.6724664 82.49948818 -81.02734375 105.42578125 C-85.9532454 129.12806097 -82.85982996 152.74342159 -69.5 173.25 C-58.40932513 189.47058407 -43.04228037 201.78706302 -24.125 207.5625 C-23.35599365 207.81999023 -22.5869873 208.07748047 -21.79467773 208.34277344 C-14.04963233 210.74731587 -6.75771495 211.01319769 1.3125 210.9375 C3.16198242 210.95490234 3.16198242 210.95490234 5.04882812 210.97265625 C21.87939916 210.91931054 37.73249109 205.53987935 51.60546875 196.078125 C53.64395687 194.71679386 55.65897144 193.60174098 57.875 192.5625 C58.5040625 193.13097656 59.133125 193.69945312 59.78125 194.28515625 C63.7911265 197.90249966 67.80245355 201.51571262 71.875 205.0625 C72.5040625 205.61421875 73.133125 206.1659375 73.78125 206.734375 C75.37789149 208.12845749 76.98377212 209.51196578 78.59375 210.890625 C79.5115625 211.68984375 80.429375 212.4890625 81.375 213.3125 C82.65890625 214.41851562 82.65890625 214.41851562 83.96875 215.546875 C85.875 217.5625 85.875 217.5625 85.875 220.5625 C70.61440704 238.85625429 40.53506003 248.80092847 17.875 251.5625 C0.47525327 252.43682883 -17.37212038 252.84585135 -34.125 247.5625 C-35.14835449 247.24901611 -35.14835449 247.24901611 -36.19238281 246.92919922 C-67.40998157 237.07683649 -94.90096374 213.85971563 -110.09375 184.90625 C-125.30886905 154.43928012 -129.07457871 120.2634113 -118.58203125 87.6328125 C-111.84015805 67.81513437 -101.47939558 51.82573999 -87.125 36.5625 C-86.58746094 35.96050781 -86.04992187 35.35851562 -85.49609375 34.73828125 C-72.30111721 20.55120121 -52.52569327 10.0668422 -34.125 4.5625 C-32.99465332 4.22049561 -31.86430664 3.87849121 -30.69970703 3.52612305 C-20.40606236 0.58713731 -10.66787455 -0.11996757 0 0 Z " fill="#C2F629" transform="translate(357.125,270.4375)"/>
<path d="M0 0 C1.21236328 -0.05607422 1.21236328 -0.05607422 2.44921875 -0.11328125 C9.93868818 1.00043249 14.67861283 5.12612246 19.25 10.875 C19.76232178 11.49560303 20.27464355 12.11620605 20.80249023 12.75561523 C22.31895318 14.59765987 23.81690571 16.45349984 25.3125 18.3125 C26.83296497 20.16696875 28.35376384 22.02116382 29.875 23.875 C30.59042969 24.75542969 31.30585937 25.63585937 32.04296875 26.54296875 C36.39755794 31.85691666 40.86328435 37.07776766 45.3125 42.3125 C51.27019961 49.32204175 57.18691115 56.35523486 62.9921875 63.4921875 C65.60678789 66.67020346 68.26891424 69.80485185 70.9375 72.9375 C75.20793802 77.95417055 79.33482847 83.05871542 83.3125 88.3125 C86.90396579 84.81114267 90.2243199 81.16572769 93.4375 77.3125 C94.40615418 76.15877371 95.37490702 75.00513025 96.34375 73.8515625 C96.83488281 73.26536133 97.32601563 72.67916016 97.83203125 72.07519531 C99.26787145 70.36563623 100.71043899 68.66206832 102.15625 66.9609375 C106.39960747 61.96792269 110.61747427 56.96061275 114.75 51.875 C119.65476917 45.85113911 124.72492173 39.97459021 129.78955078 34.08544922 C132.24230079 31.23006759 134.68728338 28.36822498 137.125 25.5 C137.58213379 24.9639917 138.03926758 24.4279834 138.51025391 23.87573242 C141.15686574 20.75130038 143.64106644 17.55048405 146.0625 14.25 C149.00804726 10.47969951 151.61050557 7.63328495 156.3125 6.3125 C162.74814255 5.56658995 168.93951109 5.31399663 174.3125 9.3125 C179.56625283 14.6647607 182.45937001 17.92608585 182.625 25.5625 C182.68107422 27.24085938 182.68107422 27.24085938 182.73828125 28.953125 C181.92549181 35.36595908 177.22905719 39.75841936 173.125 44.5 C172.13986427 45.65039065 171.15549975 46.80144214 170.171875 47.953125 C169.68654297 48.52095703 169.20121094 49.08878906 168.70117188 49.67382812 C166.72534874 52.00535501 164.79947612 54.37601121 162.875 56.75 C158.46336945 62.16820579 153.91926358 67.4652085 149.36328125 72.76171875 C142.370678 80.891981 135.4724375 89.09033868 128.7109375 97.4140625 C126.90412525 99.59753919 125.07966459 101.75483073 123.2265625 103.8984375 C122.69216553 104.51662354 122.15776855 105.13480957 121.60717773 105.77172852 C120.56554794 106.97285441 119.52096552 108.17142862 118.47290039 109.36694336 C115.44177478 112.85995477 112.79772877 116.41051374 110.3125 120.3125 C111.14652344 121.26769531 111.98054688 122.22289062 112.83984375 123.20703125 C118.66448389 129.89342277 124.42263526 136.61180464 130.00390625 143.50390625 C132.72594185 146.81548593 135.51393139 150.0656 138.3125 153.3125 C142.63428183 158.32836975 146.86729352 163.4042549 151.04296875 168.54296875 C155.39755794 173.85691666 159.86328435 179.07776766 164.3125 184.3125 C167.98875331 188.63780216 171.65801953 192.96877931 175.3125 197.3125 C176.13105469 198.28445313 176.94960937 199.25640625 177.79296875 200.2578125 C191.76684869 217.06391937 191.76684869 217.06391937 191.65625 226.64453125 C190.92551248 232.31605089 187.51965919 236.43652875 183.375 240.1875 C178.11279001 243.83882938 172.72150686 245.4191786 166.3125 244.3125 C155.67705837 240.40337464 147.54278077 227.73256235 140.69140625 219.2265625 C137.95344847 215.87267662 135.14030112 212.59060205 132.3125 209.3125 C127.9928791 204.29959824 123.76151915 199.22711491 119.58984375 194.08984375 C117.03046028 190.96853733 114.42660084 187.88796576 111.8125 184.8125 C108.45802873 180.86599519 105.14028171 176.89607928 101.875 172.875 C98.26939411 168.44637538 94.59015788 164.086663 90.875 159.75 C90.35429932 159.14164307 89.83359863 158.53328613 89.29711914 157.90649414 C87.35482813 155.64651926 85.42044489 153.42044489 83.3125 151.3125 C74.96460004 160.98007641 74.96460004 160.98007641 66.8125 170.8125 C62.42537098 176.21326172 57.90026588 181.487177 53.36328125 186.76171875 C47.11822679 194.02281003 40.9161885 201.31803429 34.875 208.75 C30.96332108 213.5541832 26.96145582 218.27332468 22.90576172 222.95605469 C20.33496069 225.92846669 17.80528999 228.92134383 15.34765625 231.98828125 C14.8686084 232.57818848 14.38956055 233.1680957 13.89599609 233.77587891 C12.99579569 234.88766891 12.10591568 236.00793427 11.22900391 237.13818359 C7.51789228 241.685275 3.46348753 243.74218551 -2.27734375 244.78125 C-8.68531083 244.8665474 -12.79426813 243.48805786 -17.6875 239.3125 C-22.30026222 234.72268684 -23.88445351 230.78345068 -24.25 224.3125 C-24.178928 216.30801605 -20.88536924 212.10812421 -15.6875 206.3125 C-14.58921875 205.06533203 -14.58921875 205.06533203 -13.46875 203.79296875 C-11.97847776 202.12690736 -10.47560947 200.47203519 -8.9609375 198.828125 C-5.88442684 195.42387609 -3.02264603 191.86273279 -0.13671875 188.296875 C2.630607 184.92488637 5.4639694 181.61584554 8.3125 178.3125 C11.86717214 174.18794389 15.3804263 170.04041688 18.8125 165.8125 C23.19962902 160.41173828 27.72473412 155.137823 32.26171875 149.86328125 C36.53941563 144.88962606 40.78557191 139.8898889 45.00439453 134.86621094 C45.8828148 133.82286144 46.76404547 132.78187216 47.64794922 131.74316406 C48.91756087 130.25088785 50.17772279 128.7505877 51.4375 127.25 C52.16195313 126.39277344 52.88640625 125.53554688 53.6328125 124.65234375 C55.28849019 122.34594623 55.9573574 121.08725904 56.3125 118.3125 C54.64186884 115.97422609 52.99777033 113.97490018 51.0625 111.875 C49.94607217 110.62027408 48.8301988 109.36505463 47.71484375 108.109375 C47.14491699 107.47580078 46.57499023 106.84222656 45.98779297 106.18945312 C43.47982811 103.37959683 41.05016739 100.50629676 38.625 97.625 C38.17092773 97.08818604 37.71685547 96.55137207 37.24902344 95.99829102 C33.65612047 91.7441851 30.13369995 87.43461382 26.6171875 83.1171875 C22.24493049 77.79637304 17.77242856 72.55983664 13.3125 67.3125 C6.56665247 59.37566146 -0.14406517 51.418057 -6.6875 43.3125 C-7.15784668 42.73790039 -7.62819336 42.16330078 -8.11279297 41.57128906 C-9.62557454 39.72108227 -11.1261713 37.86151974 -12.625 36 C-13.09808594 35.42515869 -13.57117187 34.85031738 -14.05859375 34.25805664 C-18.07213027 29.22873953 -20.20632165 24.79225336 -19.5625 18.3125 C-18.60463708 11.04144968 -14.7706035 7.09348537 -9.37109375 2.51171875 C-6.38972329 0.38809756 -3.55494773 0.10603455 0 0 Z " fill="#C2F629" transform="translate(1147.6875,367.6875)"/>
<path d="M0 0 C4.44143317 3.49108284 7.64823475 7.86164076 8.7890625 13.40625 C8.87690172 14.7485588 8.91805062 16.09447106 8.92049026 17.43964863 C8.92433141 18.23751012 8.92817255 19.03537161 8.9321301 19.85741073 C8.93126362 20.72812074 8.93039713 21.59883074 8.92950439 22.4959259 C8.93247552 23.42545458 8.93544664 24.35498326 8.9385078 25.31267947 C8.94719587 28.43478041 8.94870313 31.556843 8.95019531 34.67895508 C8.95482338 36.91446515 8.95984802 39.14997443 8.96524048 41.38548279 C8.97836684 47.46403417 8.9848098 53.54257451 8.98925114 59.62113786 C8.99218123 63.41765571 8.9962859 67.21417054 9.00075531 71.01068687 C9.01286347 81.52532828 9.02324598 92.0399679 9.0266304 102.55461597 C9.02695975 103.5636869 9.02695975 103.5636869 9.02729575 104.59314309 C9.02762317 105.60460438 9.02762317 105.60460438 9.0279572 106.63649923 C9.02840066 108.00286472 9.02884723 109.36923021 9.02929688 110.7355957 C9.0295183 111.41335769 9.02973973 112.09111968 9.02996787 112.78941991 C9.03391574 123.77109577 9.05137026 134.75270526 9.0746564 145.73435549 C9.09837935 157.01317078 9.11057476 168.29195393 9.11199832 179.5707981 C9.11304716 185.90181441 9.11897194 192.23273709 9.13681793 198.56373024 C9.1532771 204.51858358 9.15546451 210.47327269 9.14667892 216.42814064 C9.14590742 218.61344848 9.1502661 220.79876507 9.16013718 222.98405075 C9.17282564 225.96810439 9.16699651 228.95157366 9.15655518 231.93562317 C9.16461158 232.79964101 9.17266798 233.66365885 9.18096852 234.55385906 C9.12004162 242.00287873 7.20190056 247.99341194 1.7890625 253.40625 C-3.46649073 257.30019501 -8.77858034 258.15053698 -15.23828125 257.921875 C-20.82236532 256.95328223 -24.94833885 254.02709344 -28.6171875 249.77734375 C-32.33594004 244.47812138 -32.35754215 239.6400786 -32.35137939 233.39886475 C-32.35435052 232.46610694 -32.35732164 231.53334914 -32.3603828 230.57232594 C-32.36908428 227.43329946 -32.37057927 224.29431104 -32.37207031 221.15527344 C-32.37669747 218.91005878 -32.38172199 216.66484491 -32.38711548 214.41963196 C-32.40025162 208.31003061 -32.40668685 202.20044026 -32.41112614 196.09082699 C-32.41405501 192.27538593 -32.41815947 188.4599479 -32.42263031 184.64450836 C-32.43474088 174.07929485 -32.44512226 163.51408396 -32.4485054 152.94886398 C-32.44883475 151.93453896 -32.44883475 151.93453896 -32.44917075 150.89972253 C-32.44938903 150.22189196 -32.44960731 149.54406138 -32.4498322 148.84569049 C-32.45027567 147.47215954 -32.45072223 146.0986286 -32.45117188 144.72509766 C-32.4513933 144.04377955 -32.45161473 143.36246145 -32.45184287 142.66049734 C-32.45578983 131.62379257 -32.47324053 120.58715387 -32.4965314 109.55047461 C-32.52025443 98.21744646 -32.5324498 86.8844626 -32.53387332 75.55140519 C-32.53492226 69.18907504 -32.54084895 62.82683805 -32.55869293 56.46453094 C-32.57515229 50.47932241 -32.57733941 44.49427726 -32.56855392 38.50905418 C-32.5677824 36.31245931 -32.57214142 34.11585574 -32.58201218 31.91928291 C-32.59470003 28.91985003 -32.58887179 25.92099858 -32.57843018 22.92156982 C-32.59051478 21.61868346 -32.59051478 21.61868346 -32.60284352 20.28947616 C-32.53621789 12.10226769 -30.1292312 6.3245437 -24.2109375 0.40625 C-16.81528818 -4.03113959 -7.56215337 -4.35679618 0 0 Z " fill="#C3F62B" transform="translate(1054.2109375,362.59375)"/>
<path d="M0 0 C0 13.53 0 27.06 0 41 C-3.17625 41.2475 -6.3525 41.495 -9.625 41.75 C-33.02702654 43.90151729 -53.66810467 53.34808828 -69.09375 71.4921875 C-77.38676009 82.40225405 -82.69254234 94.07762703 -87 107 C-100.53 107 -114.06 107 -128 107 C-128 100.6214685 -127.31330841 96.47419421 -125.5 90.5625 C-125.23227783 89.68577637 -124.96455566 88.80905273 -124.6887207 87.90576172 C-114.12209258 54.71528718 -90.25479172 28.27687769 -59.65429688 12.17700195 C-40.35951398 2.45861052 -21.73289212 0 0 0 Z " fill="#C2F629" transform="translate(975,368)"/>
<path d="M0 0 C7.5997716 6.49147157 15.10869821 13.06921116 22.5078125 19.7890625 C25.01454822 22.10231568 25.01454822 22.10231568 28.10922241 24.14967346 C30.79026595 26.39598537 30.98329614 26.9196992 31.7484436 30.5980072 C31.77781893 32.00375252 31.77444915 33.41042616 31.74462891 34.81616211 C31.75193024 35.58754013 31.75923157 36.35891815 31.76675415 37.15367126 C31.78292594 39.6958002 31.75578572 42.23536237 31.7265625 44.77734375 C31.72552465 46.54944355 31.72656255 48.32154566 31.72958374 50.09364319 C31.72940447 53.8052108 31.70858674 57.51590798 31.67236328 61.22729492 C31.62702025 65.97662144 31.62589572 70.72467496 31.63939857 75.47415829 C31.64609363 79.1331761 31.63278881 82.79190556 31.61314011 86.45086861 C31.60545986 88.20148775 31.60312982 89.95213904 31.6063118 91.70277214 C31.60705663 94.15394636 31.58172114 96.60351179 31.54931641 99.05444336 C31.55427124 99.77307556 31.55922607 100.49170776 31.56433105 101.2321167 C31.45865938 106.2597077 30.1347741 109.11360744 27 113 C21.59386962 117.25474155 15.57471451 116.75257738 9 116 C4.95500251 114.51454894 2.23427529 111.64539652 0 108 C-0.92282063 105.23153811 -1.12555695 103.5963351 -1.12698364 100.74241638 C-1.12980347 99.87452484 -1.13262329 99.0066333 -1.13552856 98.11244202 C-1.13350433 97.16324387 -1.1314801 96.21404572 -1.12939453 95.23608398 C-1.13114685 94.23424072 -1.13289917 93.23239746 -1.13470459 92.20019531 C-1.13911299 88.88214394 -1.13618887 85.56414568 -1.1328125 82.24609375 C-1.13348578 79.94588714 -1.134456 77.64568061 -1.13571167 75.34547424 C-1.13718723 70.52270837 -1.13503842 65.69996099 -1.13037109 60.87719727 C-1.1246707 54.68392434 -1.12795569 48.49069471 -1.13394356 42.29742336 C-1.13755026 37.54750744 -1.13641013 32.79760185 -1.13381577 28.04768562 C-1.13314696 25.76343849 -1.13397329 23.47919043 -1.13629532 21.19494438 C-1.13882395 18.00811131 -1.13497836 14.82134924 -1.12939453 11.63452148 C-1.13141876 10.6832991 -1.13344299 9.73207672 -1.13552856 8.75202942 C-1.13270874 7.8869577 -1.12988892 7.02188599 -1.12698364 6.13059998 C-1.12660662 5.3767826 -1.12622959 4.62296522 -1.12584114 3.84630489 C-1 2 -1 2 0 0 Z " fill="#C1F42B" transform="translate(454,498)"/>
<path d="M0 0 C4.1796989 2.8497947 7.11864324 5.98092971 8.75 10.875 C8.83844068 12.29649624 8.87198928 13.72179811 8.87025452 15.14604187 C8.87162918 16.01682373 8.87300385 16.88760559 8.87442017 17.78477478 C8.86902725 19.21328514 8.86902725 19.21328514 8.86352539 20.6706543 C8.86367142 21.67571014 8.86381744 22.68076599 8.8639679 23.71627808 C8.86327029 27.04394679 8.85548494 30.37155979 8.84765625 33.69921875 C8.84579153 36.0042162 8.84436788 38.30921405 8.84336853 40.61421204 C8.83954759 46.68544608 8.82972089 52.75665626 8.81866455 58.82788086 C8.80844135 65.02131833 8.80386896 71.21475965 8.79882812 77.40820312 C8.78809827 89.56381258 8.7710269 101.71940431 8.75 113.875 C5.15076127 113.875 4.75381073 113.30022032 2.1875 110.9375 C1.48496094 110.29941406 0.78242187 109.66132813 0.05859375 109.00390625 C-0.70324219 108.30136719 -1.46507812 107.59882813 -2.25 106.875 C-3.91522245 105.37339687 -5.58192826 103.87343733 -7.25 102.375 C-8.08660156 101.62089844 -8.92320312 100.86679687 -9.78515625 100.08984375 C-12.07787261 98.02966915 -14.37648938 95.97712588 -16.6875 93.9375 C-17.30496094 93.39222656 -17.92242188 92.84695313 -18.55859375 92.28515625 C-20.40617506 90.69377961 -20.40617506 90.69377961 -23.25 88.875 C-23.56834446 86.28112654 -23.69057067 83.92229177 -23.68579102 81.32348633 C-23.69586685 80.54439911 -23.70594269 79.76531189 -23.71632385 78.96261597 C-23.7449057 76.37727642 -23.75068648 73.79251914 -23.75390625 71.20703125 C-23.76354408 69.41061664 -23.7736363 67.61420441 -23.78416443 65.8177948 C-23.80215402 62.04571072 -23.80768295 58.27383295 -23.8059082 54.50170898 C-23.80560406 49.67711071 -23.84647404 44.85384425 -23.89822483 40.02956104 C-23.93165941 36.31564822 -23.9376635 32.60205411 -23.93607903 28.88800621 C-23.93961153 27.11024086 -23.95283874 25.3324666 -23.97607613 23.55484962 C-24.16154176 7.89411105 -24.16154176 7.89411105 -20.35131836 3.3190918 C-14.04253789 -1.65274173 -7.64917787 -2.64779234 0 0 Z " fill="#C1F42B" transform="translate(598.25,288.125)"/>
<path d="M0 0 C4.62994259 1.72488057 7.62722164 3.61948611 10 8 C10.65956843 12.92082513 10.64957582 17.35896635 8.8125 22 C5.89665229 25.21748713 3.8195149 26.77530087 -0.59375 27.3203125 C-5.00078627 27.49801558 -8.07714112 27.49988189 -12 25.375 C-15.21958695 21.55174049 -16.81350798 18.49193615 -17.4375 13.5 C-16.74645309 7.9716247 -14.37443276 5.16063211 -10.1875 1.625 C-6.37985365 -0.31615304 -4.22575274 -0.52821909 0 0 Z " fill="#FAFAFA" transform="translate(540,401)"/>
<path d="M0 0 C4.62994259 1.72488057 7.62722164 3.61948611 10 8 C10.72498874 12.4380152 11.06724746 16.86550507 9.01171875 20.9765625 C6.24576234 24.45327551 3.22517141 26.6934916 -1.18359375 27.30078125 C-5.92205558 27.32541797 -9.29752095 27.27933859 -13 24 C-16.39453687 19.22929953 -17.87159882 15.99224187 -17 10 C-13.30090764 2.74408806 -8.25966171 -1.03245771 0 0 Z " fill="#FAFAFA" transform="translate(540,448)"/>
</svg>
