<?xml version="1.0" encoding="UTF-8"?>
<svg version="1.1" xmlns="http://www.w3.org/2000/svg" width="1600" height="896">
<path d="M0 0 C528 0 1056 0 1600 0 C1600 295.68 1600 591.36 1600 896 C1072 896 544 896 0 896 C0 600.32 0 304.64 0 0 Z " fill="#C3F729" transform="translate(0,0)"/>
<path d="M0 0 C4.82190543 3.41916931 9.13229909 6.99564291 13.24609375 11.23828125 C14.95704629 12.95685496 16.72414615 14.54424987 18.5625 16.125 C22.46617553 19.48840075 26.23412134 22.98438543 30 26.5 C35.92388771 32.02026853 41.91389256 37.42036423 48.125 42.6171875 C53.41124754 47.04665654 58.60696935 51.43447566 63.40625 56.3984375 C65.76751978 58.77128213 68.29839228 60.93149508 70.83203125 63.1171875 C73.24842951 65.2157532 75.62529024 67.354397 78 69.5 C78.83789062 70.25023437 79.67578125 71.00046875 80.5390625 71.7734375 C82.13507641 73.21745008 83.71448698 74.68011304 85.2734375 76.1640625 C85.96695313 76.81117188 86.66046875 77.45828125 87.375 78.125 C87.98085938 78.70507812 88.58671875 79.28515625 89.2109375 79.8828125 C90.92083892 81.1918017 90.92083892 81.1918017 92.91796875 80.87890625 C95.4913546 79.79258014 97.62800937 78.38573197 99.9375 76.8125 C120.13712307 63.71367652 143.33779846 59.85499739 166.9609375 64.25 C181.91203434 67.93973084 194.46683277 74.87517333 206 85 C206.76054688 85.66515625 207.52109375 86.3303125 208.3046875 87.015625 C224.46921497 102.11743268 233.68329562 124.1478446 234.52392578 146.07202148 C234.87468873 171.5600559 224.81327194 193.50256319 207.5 211.875 C189.28185382 228.99921592 165.86744986 235.61074852 141.41015625 235.28125 C120.37039626 234.54028293 101.92310863 224.27536101 87 210 C86.30003906 209.37480469 85.60007812 208.74960937 84.87890625 208.10546875 C75.73844192 199.64207585 70.26123414 188.55231917 66 177 C65.69191406 176.17371094 65.38382813 175.34742188 65.06640625 174.49609375 C57.96667266 154.4198136 60.99180124 129.88307553 70 111 C71.62328625 107.64284943 73.288947 104.31306627 75 101 C62.26604022 89.03446786 62.26604022 89.03446786 49.08984375 77.5625 C42.19788479 71.78454077 35.50973428 65.84552148 28.9296875 59.71484375 C25.9857503 56.98679527 22.99172054 54.33283609 19.95703125 51.70703125 C17.6144085 49.66366569 15.30726578 47.58319141 13 45.5 C9.38595942 42.23854875 5.74210646 39.01640845 2.0703125 35.8203125 C-0.34827961 33.6937768 -2.73653963 31.53530894 -5.125 29.375 C-8.6845614 26.16150707 -12.28439311 23.03115299 -16 20 C-14.70051302 17.19338396 -13.27446717 14.95117502 -11.25 12.6171875 C-10.7240625 12.00746094 -10.198125 11.39773438 -9.65625 10.76953125 C-9.1096875 10.14433594 -8.563125 9.51914062 -8 8.875 C-7.4534375 8.24207031 -6.906875 7.60914063 -6.34375 6.95703125 C-4.27933167 4.57384244 -2.23028116 2.23028116 0 0 Z " fill="#C3F72A" transform="translate(553,345)"/>
<path d="M0 0 C4.26105074 3.39817129 8.14392563 7.15489597 12 11 C12.73089844 11.70769531 13.46179688 12.41539062 14.21484375 13.14453125 C23.74952876 23.01906642 29.74897996 35.7937839 33 49 C33.35320312 50.16660156 33.70640625 51.33320313 34.0703125 52.53515625 C39.24080894 73.47033002 34.47450667 94.74039618 24.35546875 113.14453125 C22.71411338 116.07544784 22.71411338 116.07544784 23 120 C24.39854223 121.70190201 24.39854223 121.70190201 26.375 123.1875 C27.46941406 124.09048828 27.46941406 124.09048828 28.5859375 125.01171875 C29.38257813 125.66785156 30.17921875 126.32398438 31 127 C32.67399886 128.49181286 34.3405054 129.99206915 36 131.5 C41.93779007 136.85033748 47.89151527 142.12001226 54.125 147.125 C59.91715978 151.82961935 65.33724628 156.88862188 70.77734375 161.9921875 C73.81794331 164.8422557 76.92348424 167.60488811 80.078125 170.328125 C82.41105074 172.35758073 84.70511245 174.427647 87 176.5 C90.60995573 179.75776493 94.2488779 182.97713007 97.91796875 186.16796875 C101.24875365 189.0988095 104.5228716 192.09228948 107.80078125 195.08203125 C110.04822519 197.12519492 110.04822519 197.12519492 113 199 C111.49574731 204.45556434 107.69791456 207.85710821 103.875 211.8125 C103.21628906 212.50537109 102.55757812 213.19824219 101.87890625 213.91210938 C100.25890195 215.61428781 98.63256449 217.30987919 97 219 C92.23227752 215.51037859 87.66379585 211.94577399 83.3125 207.9375 C81.97638672 206.71353516 81.97638672 206.71353516 80.61328125 205.46484375 C78.8736704 203.82404487 77.15837257 202.15707377 75.46875 200.46484375 C73.1037166 198.10355249 70.67745791 195.85349221 68.1875 193.625 C66.87845703 192.45324219 66.87845703 192.45324219 65.54296875 191.2578125 C62.72630796 188.75699847 59.89284902 186.27654604 57.05078125 183.8046875 C54.73911203 181.77041859 52.4646857 179.6977769 50.1875 177.625 C46.64839998 174.42347567 43.02896894 171.36853937 39.3125 168.375 C35.53247712 165.31700396 32.04251817 162.16241214 28.6640625 158.671875 C26.2836055 156.28024215 23.73892142 154.10010383 21.18359375 151.8984375 C17.83960727 148.99114335 14.57267161 145.99931235 11.296875 143.015625 C9.26187041 141.22980465 7.19099251 139.58796705 5 138 C1.88903877 139.44410052 -0.93739472 141.22540522 -3.82250977 143.07226562 C-23.76011922 155.66279161 -47.99323224 159.93053826 -71.265625 155.09375 C-75.32509906 154.04158973 -79.13452846 152.62349805 -83 151 C-84.07765625 150.55398438 -85.1553125 150.10796875 -86.265625 149.6484375 C-102.72052778 142.09605905 -117.28185982 128.86607769 -126 113 C-126.45890625 112.17886719 -126.9178125 111.35773438 -127.390625 110.51171875 C-138.25394414 89.99575158 -140.14496646 66.13374476 -133.38183594 43.97460938 C-125.3765464 20.22674901 -109.01288078 3.46805629 -87.25 -8.1875 C-59.22289867 -21.87175052 -25.31563532 -17.65126866 0 0 Z " fill="#C3F72A" transform="translate(410,326)"/>
<path d="M0 0 C2.14759273 0.02386488 4.29395586 0.02049283 6.44165039 0.01391602 C13.91721188 0.02837219 21.06036926 0.38175559 28.31860352 2.33618164 C28.99592529 2.51834229 29.67324707 2.70050293 30.37109375 2.88818359 C35.06275875 4.22691238 39.69352132 5.78447407 44.31860352 7.33618164 C45.4259082 7.70614258 46.53321289 8.07610352 47.67407227 8.45727539 C61.39693905 13.3838698 73.4470929 20.64635696 84.31860352 30.33618164 C85.16938477 31.05547852 86.02016602 31.77477539 86.89672852 32.51586914 C110.31526408 52.70178477 125.66047845 83.58196044 128.31860352 114.33618164 C129.08391302 127.93872629 128.98099861 141.15155932 125.31860352 154.33618164 C125.02058838 155.47748535 125.02058838 155.47748535 124.71655273 156.6418457 C116.2656464 188.83758326 96.78097234 217.44723325 67.74047852 234.43383789 C66.04665039 235.37549805 66.04665039 235.37549805 64.31860352 236.33618164 C63.72241211 236.67246582 63.1262207 237.00875 62.51196289 237.35522461 C34.46223536 252.98817485 0.25685394 257.2120435 -30.78295898 248.82446289 C-37.65042352 246.80579607 -44.17377594 244.32492354 -50.68139648 241.33618164 C-52.21086914 240.66135742 -52.21086914 240.66135742 -53.77124023 239.97290039 C-66.16874619 234.18956976 -76.83910253 225.7513236 -86.68139648 216.33618164 C-87.28081055 215.78833008 -87.88022461 215.24047852 -88.49780273 214.67602539 C-108.21976807 196.05226694 -122.59500784 166.36454222 -123.82666016 139.12329102 C-123.85146934 135.36083122 -123.86705571 131.5987293 -123.86889648 127.83618164 C-123.88726563 125.90645508 -123.88726563 125.90645508 -123.90600586 123.93774414 C-123.94599756 97.43657666 -115.59746328 73.9830813 -100.68139648 52.33618164 C-97.71813704 53.6872713 -95.47354484 55.22324812 -93.05639648 57.39868164 C-92.36288086 58.0187207 -91.66936523 58.63875977 -90.95483398 59.27758789 C-90.20459961 59.95692383 -89.45436523 60.63625977 -88.68139648 61.33618164 C-87.86928711 62.06708008 -87.05717773 62.79797852 -86.22045898 63.55102539 C-84.5299775 65.07245873 -82.84246315 66.59719547 -81.15795898 68.12524414 C-78.19521009 70.77022186 -75.15356232 73.3135005 -72.07983398 75.82836914 C-70.68139648 77.33618164 -70.68139648 77.33618164 -70.68139648 80.33618164 C-71.90615002 83.03587589 -73.17408566 85.68389442 -74.49389648 88.33618164 C-80.59725897 100.94295221 -82.85977474 112.59343327 -82.86889648 126.58618164 C-82.88726563 128.04604492 -82.88726563 128.04604492 -82.90600586 129.53540039 C-82.9496647 151.45213877 -73.82296708 170.73081519 -58.68139648 186.33618164 C-57.8712207 187.25657227 -57.8712207 187.25657227 -57.04467773 188.19555664 C-44.92930196 201.50110787 -24.94485154 210.42757125 -7.19604492 211.48413086 C2.68674392 211.84622356 12.7325795 212.02649857 22.31860352 209.33618164 C24.01436523 208.87598633 24.01436523 208.87598633 25.74438477 208.40649414 C48.53879307 201.54213442 65.96470558 187.7671867 77.46191406 166.83276367 C87.8689469 146.93360198 90.98265111 124.13033992 84.71313477 102.36743164 C82.40883004 95.29103057 78.98078192 88.78952422 75.31860352 82.33618164 C74.76172852 81.3268457 74.20485352 80.31750977 73.63110352 79.27758789 C62.95042705 61.17692224 44.25534095 49.103694 24.31860352 43.33618164 C-0.57308579 37.31013306 -25.03633083 42.13269159 -46.68139648 55.33618164 C-47.65077148 56.14055664 -48.62014648 56.94493164 -49.61889648 57.77368164 C-51.68139648 59.33618164 -51.68139648 59.33618164 -53.61206055 59.10229492 C-55.89842181 58.25583413 -57.10288156 57.32385207 -58.85327148 55.64086914 C-59.43149658 55.09293701 -60.00972168 54.54500488 -60.60546875 53.98046875 C-61.50930298 53.10467163 -61.50930298 53.10467163 -62.43139648 52.21118164 C-63.68455799 51.02159452 -64.93845939 49.83278632 -66.19311523 48.64477539 C-66.79430176 48.07227051 -67.39548828 47.49976563 -68.01489258 46.90991211 C-72.70273983 42.48303497 -77.60097538 38.30526063 -82.68139648 34.33618164 C-81.14901972 30.22146625 -78.21318262 28.06793415 -74.80639648 25.52368164 C-74.22341797 25.08499756 -73.64043945 24.64631348 -73.03979492 24.19433594 C-62.37173435 16.30014439 -51.0045268 11.05693388 -38.68139648 6.33618164 C-37.83706055 6.00618164 -36.99272461 5.67618164 -36.12280273 5.33618164 C-24.37264575 1.07147438 -12.38955644 -0.14690046 0 0 Z " fill="#010100" transform="translate(698.681396484375,367.663818359375)"/>
<path d="M0 0 C0.80593597 0.00392761 1.61187195 0.00785522 2.44223022 0.01190186 C15.76563201 0.10314788 28.14737247 1.39514411 40.875 5.5625 C41.60895996 5.79243652 42.34291992 6.02237305 43.09912109 6.25927734 C72.80382599 15.73607753 98.19213319 37.68757281 113.03515625 64.9453125 C127.40864393 92.84007473 133.44952277 125.78417557 124.875 156.5625 C124.64925293 157.37444824 124.42350586 158.18639648 124.19091797 159.02294922 C120.06460991 173.34929925 114.66488814 188.07098344 104.875 199.5625 C101.7044873 198.9790913 100.01850103 198.09339908 97.703125 195.8671875 C97.1248999 195.31925537 96.5466748 194.77132324 95.95092773 194.20678711 C95.34837158 193.62292236 94.74581543 193.03905762 94.125 192.4375 C92.87183849 191.24791288 91.6179371 190.05910468 90.36328125 188.87109375 C89.76209473 188.29858887 89.1609082 187.72608398 88.54150391 187.13623047 C83.85365665 182.70935332 78.95542111 178.53157899 73.875 174.5625 C75.23588487 170.97647163 76.8628098 167.68264022 78.6875 164.3125 C88.37699223 144.60021606 90.71598615 121.39638045 84.265625 100.16015625 C75.16293215 76.61077392 60.26507563 58.97848843 37.5 47.75 C30.57264444 44.76638486 23.20440389 43.22938784 15.875 41.5625 C15.22563477 41.38525391 14.57626953 41.20800781 13.90722656 41.02539062 C-4.53450993 36.8248221 -26.00989939 42.97609598 -41.75 52.3125 C-61.32430836 64.92967467 -75.6724664 82.49948818 -81.02734375 105.42578125 C-85.79045768 128.34476476 -83.0787225 151.14000186 -70.8125 171.375 C-59.34305581 188.35279568 -43.65804554 201.25315343 -24.125 207.5625 C-22.96278931 207.95526123 -22.96278931 207.95526123 -21.77709961 208.35595703 C-14.04197511 210.75491926 -6.74616251 211.01308933 1.3125 210.9375 C3.16198242 210.95490234 3.16198242 210.95490234 5.04882812 210.97265625 C21.87939916 210.91931054 37.73249109 205.53987935 51.60546875 196.078125 C53.64395687 194.71679386 55.65897144 193.60174098 57.875 192.5625 C58.57625 193.20316406 59.2775 193.84382812 60 194.50390625 C64.8983317 198.96964072 69.81297107 203.40971291 74.81640625 207.7578125 C78.87483899 211.31567953 82.87075024 214.94390544 86.875 218.5625 C72.75483566 238.24515332 42.7012061 247.47453458 19.9163208 251.28067017 C13.85269837 252.11782898 7.73373794 252.05443764 1.625 252 C0.9074353 251.99729095 0.18987061 251.99458191 -0.54943848 251.99179077 C-17.08831806 251.89739707 -31.97048241 249.42595905 -47.125 242.5625 C-47.74439453 242.28422363 -48.36378906 242.00594727 -49.00195312 241.71923828 C-80.75376722 227.25886777 -104.39727811 201.77117685 -116.78125 169.28515625 C-128.60933349 136.88819974 -126.41567752 102.68772064 -112.17089844 71.47167969 C-105.87200408 58.27796303 -97.11632002 47.18641756 -87.125 36.5625 C-86.58746094 35.96050781 -86.04992187 35.35851562 -85.49609375 34.73828125 C-72.30111721 20.55120121 -52.52569327 10.0668422 -34.125 4.5625 C-32.99465332 4.22049561 -31.86430664 3.87849121 -30.69970703 3.52612305 C-20.40606236 0.58713731 -10.66787455 -0.11996757 0 0 Z " fill="#010100" transform="translate(357.125,270.4375)"/>
<path d="M0 0 C3.25025296 2.11929225 5.50894155 4.8309554 7.90698242 7.84667969 C8.4193042 8.46728271 8.93162598 9.08788574 9.45947266 9.72729492 C10.9759356 11.56933955 12.47388813 13.42517953 13.96948242 15.28417969 C15.48994739 17.13864844 17.01074626 18.9928435 18.53198242 20.84667969 C19.24741211 21.72710937 19.9628418 22.60753906 20.69995117 23.51464844 C25.05454036 28.82859635 29.52026678 34.04944735 33.96948242 39.28417969 C39.92718203 46.29372144 45.84389357 53.32691454 51.64916992 60.46386719 C54.26377031 63.64188315 56.92589666 66.77653154 59.59448242 69.90917969 C63.86492045 74.92585024 67.99181089 80.0303951 71.96948242 85.28417969 C75.56094821 81.78282236 78.88130232 78.13740738 82.09448242 74.28417969 C83.0631366 73.1304534 84.03188945 71.97680994 85.00073242 70.82324219 C85.49186523 70.23704102 85.98299805 69.65083984 86.48901367 69.046875 C87.92485388 67.33731592 89.36742142 65.633748 90.81323242 63.93261719 C95.05658989 58.93960238 99.27445669 53.93229244 103.40698242 48.84667969 C108.31175159 42.8228188 113.38190415 36.9462699 118.4465332 31.05712891 C120.89928321 28.20174728 123.3442658 25.33990467 125.78198242 22.47167969 C126.23911621 21.93567139 126.69625 21.39966309 127.16723633 20.84741211 C129.81384816 17.72298006 132.29804886 14.52216374 134.71948242 11.22167969 C137.66502968 7.4513792 140.26748799 4.60496464 144.96948242 3.28417969 C151.40512498 2.53826963 157.59649351 2.28567631 162.96948242 6.28417969 C171.10528965 14.57253331 171.10528965 14.57253331 171.21948242 21.47167969 C171.2581543 22.85419922 171.2581543 22.85419922 171.29760742 24.26464844 C170.54034833 31.23323504 166.9909766 35.90238858 162.46948242 40.90917969 C161.38959102 42.13663593 160.31017456 43.36451016 159.23120117 44.59277344 C158.68641113 45.20749512 158.14162109 45.8222168 157.58032227 46.45556641 C155.10858381 49.26146532 152.693213 52.11378204 150.28198242 54.97167969 C149.82686279 55.50946045 149.37174316 56.04724121 148.90283203 56.60131836 C146.07747854 59.94685042 143.29415161 63.32361543 140.53198242 66.72167969 C136.12035187 72.13988548 131.576246 77.43688819 127.02026367 82.73339844 C112.4355444 99.56687306 112.4355444 99.56687306 98.96948242 117.28417969 C99.80350586 118.239375 100.6375293 119.19457031 101.49682617 120.17871094 C107.32146631 126.86510246 113.07961768 133.58348433 118.66088867 140.47558594 C121.38292427 143.78716562 124.17091382 147.03727969 126.96948242 150.28417969 C131.28887828 155.29728028 135.52045678 160.36955679 139.69213867 165.50683594 C142.25152296 168.62814336 144.85542033 171.70867999 147.46948242 174.78417969 C151.58227531 179.62397067 155.6257677 184.51371002 159.62963867 189.44433594 C161.36850761 191.55478288 163.12298321 193.64263107 164.90307617 195.71777344 C165.40194336 196.30042969 165.90081055 196.88308594 166.41479492 197.48339844 C167.38650388 198.61536306 168.36160184 199.74443008 169.34057617 200.87011719 C174.72860876 207.15093425 175.37708619 210.93040884 175.21166992 219.15527344 C174.77296176 224.82309982 172.70161999 227.78483645 168.65698242 231.53417969 C163.97863915 235.27293937 159.2471815 236.92994404 153.16870117 236.70996094 C144.74063536 235.07823949 139.37927106 228.90538894 134.38354492 222.40917969 C131.69273848 218.92593511 128.85322278 215.6073903 125.96948242 212.28417969 C121.64825833 207.27269887 117.41845398 202.19873598 113.24682617 197.06152344 C110.6874427 193.94021701 108.08358326 190.85964545 105.46948242 187.78417969 C102.11501115 183.83767488 98.79726413 179.86775897 95.53198242 175.84667969 C92.02281283 171.52964372 88.4193205 167.305304 84.78198242 163.09667969 C80.63543183 158.29537633 76.67917778 153.43653435 72.96948242 148.28417969 C69.04114508 152.11104707 65.41772213 156.12579777 61.84448242 160.28417969 C61.27826172 160.94063477 60.71204102 161.59708984 60.12866211 162.2734375 C53.17408745 170.34883896 46.2559178 178.45256706 39.53198242 186.72167969 C35.12035187 192.13988548 30.576246 197.43688819 26.02026367 202.73339844 C19.64989203 210.14019534 13.3328366 217.58911094 7.15698242 225.15917969 C6.42995117 226.04476562 5.70291992 226.93035156 4.95385742 227.84277344 C3.73665148 229.34032012 2.53481434 230.85072522 1.36010742 232.38183594 C-2.69454346 237.51554714 -6.93432547 240.5927842 -13.48364258 241.69824219 C-19.91214501 242.07290951 -24.1515315 240.42425473 -29.03051758 236.28417969 C-33.33983582 232.19416517 -35.73835341 228.04911344 -36.20239258 222.06933594 C-35.99333574 211.04158788 -27.35604081 203.45360422 -20.30395508 195.79980469 C-17.22744442 192.39555578 -14.36566361 188.83441248 -11.47973633 185.26855469 C-8.71241058 181.89656606 -5.87904818 178.58752523 -3.03051758 175.28417969 C0.52415457 171.15962357 4.03740872 167.01209657 7.46948242 162.78417969 C11.85661144 157.38341797 16.38171654 152.10950268 20.91870117 146.83496094 C25.19639805 141.86130575 29.44255433 136.86156859 33.66137695 131.83789062 C34.53979723 130.79454113 35.42102789 129.75355185 36.30493164 128.71484375 C37.57454329 127.22256754 38.83470522 125.72226739 40.09448242 124.22167969 C40.81893555 123.36445313 41.54338867 122.50722656 42.28979492 121.62402344 C43.94547261 119.31762592 44.61433982 118.05893873 44.96948242 115.28417969 C43.29885126 112.94590578 41.65475275 110.94657987 39.71948242 108.84667969 C38.6030546 107.59195377 37.48718123 106.33673431 36.37182617 105.08105469 C35.80189941 104.44748047 35.23197266 103.81390625 34.64477539 103.16113281 C32.13681053 100.35127652 29.70714981 97.47797644 27.28198242 94.59667969 C26.82791016 94.05986572 26.37383789 93.52305176 25.90600586 92.9699707 C22.31310289 88.71586479 18.79068237 84.40629351 15.27416992 80.08886719 C10.90191291 74.76805272 6.42941099 69.53151633 1.96948242 64.28417969 C-4.77636511 56.34734114 -11.48708275 48.38973669 -18.03051758 40.28417969 C-18.50086426 39.70958008 -18.97121094 39.13498047 -19.45581055 38.54296875 C-20.96859212 36.69276195 -22.46918888 34.83319943 -23.96801758 32.97167969 C-24.44110352 32.39683838 -24.91418945 31.82199707 -25.40161133 31.22973633 C-29.41514785 26.20041921 -31.54933923 21.76393305 -30.90551758 15.28417969 C-30.00255854 8.28099738 -26.24910515 3.86635414 -21.03051758 -0.71582031 C-14.37656411 -4.7081924 -6.5345651 -3.46810389 0 0 Z " fill="#010100" transform="translate(1159.030517578125,370.7158203125)"/>
<path d="M0 0 C5.3864714 3.71923026 10.29935455 8.24423037 11.625 14.8125 C11.71283922 16.1548088 11.75398812 17.50072106 11.75642776 18.84589863 C11.76026891 19.64376012 11.76411005 20.44162161 11.7680676 21.26366073 C11.76720112 22.13437074 11.76633463 23.00508074 11.76544189 23.9021759 C11.76841302 24.83170458 11.77138414 25.76123326 11.7744453 26.71892947 C11.78313337 29.84103041 11.78464063 32.963093 11.78613281 36.08520508 C11.79076088 38.32071515 11.79578552 40.55622443 11.80117798 42.79173279 C11.81430434 48.87028417 11.8207473 54.94882451 11.82518864 61.02738786 C11.82811873 64.82390571 11.8322234 68.62042054 11.83669281 72.41693687 C11.84880097 82.93157828 11.85918348 93.4462179 11.8625679 103.96086597 C11.86289725 104.9699369 11.86289725 104.9699369 11.86323325 105.99939309 C11.86356067 107.01085438 11.86356067 107.01085438 11.8638947 108.04274923 C11.86433816 109.40911472 11.86478473 110.77548021 11.86523438 112.1418457 C11.8654558 112.81960769 11.86567723 113.49736968 11.86590537 114.19566991 C11.86985324 125.17734577 11.88730776 136.15895526 11.9105939 147.14060549 C11.93431685 158.41942078 11.94651226 169.69820393 11.94793582 180.9770481 C11.94898466 187.30806441 11.95490944 193.63898709 11.97275543 199.96998024 C11.9892146 205.92483358 11.99140201 211.87952269 11.98261642 217.83439064 C11.98184492 220.01969848 11.9862036 222.20501507 11.99607468 224.39030075 C12.00876314 227.37435439 12.00293401 230.35782366 11.99249268 233.34187317 C12.00054908 234.20589101 12.00860548 235.06990885 12.01690602 235.96010906 C11.95597912 243.40912873 10.03783806 249.39966194 4.625 254.8125 C-1.26368944 259.08249756 -7.25862492 259.8098314 -14.375 258.8125 C-20.37104974 257.16126427 -23.68724546 253.77743277 -27.24609375 248.8125 C-29.08773972 245.54979157 -29.49970105 242.48808922 -29.50642776 238.77910137 C-29.51026891 237.98123988 -29.51411005 237.18337839 -29.5180676 236.36133927 C-29.51720112 235.49062926 -29.51633463 234.61991926 -29.51544189 233.7228241 C-29.51841302 232.79329542 -29.52138414 231.86376674 -29.5244453 230.90607053 C-29.53313337 227.78396959 -29.53464063 224.661907 -29.53613281 221.53979492 C-29.54076088 219.30428485 -29.54578552 217.06877557 -29.55117798 214.83326721 C-29.56430434 208.75471583 -29.5707473 202.67617549 -29.57518864 196.59761214 C-29.57811873 192.80109429 -29.5822234 189.00457946 -29.58669281 185.20806313 C-29.59880097 174.69342172 -29.60918348 164.1787821 -29.6125679 153.66413403 C-29.61278747 152.99142008 -29.61300703 152.31870613 -29.61323325 151.62560691 C-29.61345153 150.95129939 -29.61366981 150.27699186 -29.6138947 149.58225077 C-29.61433816 148.21588528 -29.61478473 146.84951979 -29.61523438 145.4831543 C-29.6154558 144.80539231 -29.61567723 144.12763032 -29.61590537 143.42933009 C-29.61985324 132.44765423 -29.63730776 121.46604474 -29.6605939 110.48439451 C-29.68431685 99.20557922 -29.69651226 87.92679607 -29.69793582 76.6479519 C-29.69898466 70.31693559 -29.70490944 63.98601291 -29.72275543 57.65501976 C-29.7392146 51.70016642 -29.74140201 45.74547731 -29.73261642 39.79060936 C-29.73184492 37.60530152 -29.7362036 35.41998493 -29.74607468 33.23469925 C-29.75876314 30.25064561 -29.75293401 27.26717634 -29.74249268 24.28312683 C-29.75054908 23.41910899 -29.75860548 22.55509115 -29.76690602 21.66489094 C-29.71207456 14.96110967 -28.50607376 10.21678835 -23.9375 5.0625 C-16.72432555 -1.27101903 -9.38366675 -3.30166052 0 0 Z " fill="#000100" transform="translate(1051.375,361.1875)"/>
<path d="M0 0 C0 13.53 0 27.06 0 41 C-3.17625 41.2475 -6.3525 41.495 -9.625 41.75 C-33.02702654 43.90151729 -53.66810467 53.34808828 -69.09375 71.4921875 C-77.38676009 82.40225405 -82.69254234 94.07762703 -87 107 C-100.53 107 -114.06 107 -128 107 C-128 100.6214685 -127.31330841 96.47419421 -125.5 90.5625 C-125.23227783 89.68577637 -124.96455566 88.80905273 -124.6887207 87.90576172 C-114.12209258 54.71528718 -90.25479172 28.27687769 -59.65429688 12.17700195 C-40.35951398 2.45861052 -21.73289212 0 0 0 Z " fill="#010100" transform="translate(975,368)"/>
<path d="M0 0 C5.17110539 2.26802868 7.94115131 5.80317418 10 11 C10.54070867 14.45636422 10.50711936 17.84917272 10.45410156 21.34155273 C10.45468567 22.35694626 10.45526978 23.37233978 10.45587158 24.41850281 C10.45309652 27.75722054 10.42203083 31.09503298 10.390625 34.43359375 C10.38316058 36.75528984 10.3774686 39.07699225 10.37347412 41.3986969 C10.35823376 47.49634327 10.31896516 53.59360587 10.2746582 59.69110107 C10.23367135 65.91836354 10.21545578 72.14568828 10.1953125 78.37304688 C10.15246981 90.58219945 10.08423741 102.79106776 10 115 C5.82309253 115 4.16143835 112.68324495 1.3125 109.9375 C0.22980194 108.91859536 -0.85353164 107.90036562 -1.9375 106.8828125 C-2.72640625 106.13692871 -2.72640625 106.13692871 -3.53125 105.37597656 C-5.37963559 103.64434405 -7.27383721 101.97152218 -9.1875 100.3125 C-9.76024658 99.79486084 -10.33299316 99.27722168 -10.9230957 98.74389648 C-12.96344706 96.94882135 -12.96344706 96.94882135 -15.30151367 95.55932617 C-19.54890026 92.61336723 -21.69168319 90.38127007 -22.83764648 85.24731445 C-23.27541751 80.5017755 -23.19968438 75.76000461 -23.125 71 C-23.12598493 69.23697511 -23.12994042 67.47394963 -23.13671875 65.7109375 C-23.14095001 62.02526518 -23.11384304 58.34157049 -23.06347656 54.65625 C-23.00100086 49.94798347 -23.00977057 45.24313711 -23.04122925 40.53466797 C-23.05881078 36.89684567 -23.04197699 33.25980778 -23.0145874 29.62207031 C-23.00493506 27.88707111 -23.00498948 26.15198821 -23.01519775 24.41699219 C-23.06786733 9.21868785 -23.06786733 9.21868785 -18.5625 3.9375 C-13.04926655 -1.13835794 -7.22810575 -0.61628185 0 0 Z " fill="#020300" transform="translate(597,276)"/>
<path d="M0 0 C4.91725007 4.16897289 9.72691613 8.44160106 14.51171875 12.76171875 C21.05545263 18.73934596 21.05545263 18.73934596 28.07748413 24.11793518 C30.7691825 26.37694594 30.98117105 26.90948323 31.7484436 30.5980072 C31.77781893 32.00375252 31.77444915 33.41042616 31.74462891 34.81616211 C31.75193024 35.58754013 31.75923157 36.35891815 31.76675415 37.15367126 C31.78292594 39.6958002 31.75578572 42.23536237 31.7265625 44.77734375 C31.72552465 46.54944355 31.72656255 48.32154566 31.72958374 50.09364319 C31.72940447 53.8052108 31.70858674 57.51590798 31.67236328 61.22729492 C31.62702025 65.97662144 31.62589572 70.72467496 31.63939857 75.47415829 C31.64609363 79.1331761 31.63278881 82.79190556 31.61314011 86.45086861 C31.60545986 88.20148775 31.60312982 89.95213904 31.6063118 91.70277214 C31.60705663 94.15394636 31.58172114 96.60351179 31.54931641 99.05444336 C31.55427124 99.77307556 31.55922607 100.49170776 31.56433105 101.2321167 C31.45865938 106.2597077 30.1347741 109.11360744 27 113 C21.59386962 117.25474155 15.57471451 116.75257738 9 116 C4.95500251 114.51454894 2.23427529 111.64539652 0 108 C-0.92282063 105.23153811 -1.12555695 103.5963351 -1.12698364 100.74241638 C-1.12980347 99.87452484 -1.13262329 99.0066333 -1.13552856 98.11244202 C-1.13350433 97.16324387 -1.1314801 96.21404572 -1.12939453 95.23608398 C-1.13114685 94.23424072 -1.13289917 93.23239746 -1.13470459 92.20019531 C-1.13911299 88.88214394 -1.13618887 85.56414568 -1.1328125 82.24609375 C-1.13348578 79.94588714 -1.134456 77.64568061 -1.13571167 75.34547424 C-1.13718723 70.52270837 -1.13503842 65.69996099 -1.13037109 60.87719727 C-1.1246707 54.68392434 -1.12795569 48.49069471 -1.13394356 42.29742336 C-1.13755026 37.54750744 -1.13641013 32.79760185 -1.13381577 28.04768562 C-1.13314696 25.76343849 -1.13397329 23.47919043 -1.13629532 21.19494438 C-1.13882395 18.00811131 -1.13497836 14.82134924 -1.12939453 11.63452148 C-1.13141876 10.6832991 -1.13344299 9.73207672 -1.13552856 8.75202942 C-1.13270874 7.8869577 -1.12988892 7.02188599 -1.12698364 6.13059998 C-1.12660662 5.3767826 -1.12622959 4.62296522 -1.12584114 3.84630489 C-1 2 -1 2 0 0 Z " fill="#030300" transform="translate(454,498)"/>
<path d="M0 0 C4.62994259 1.72488057 7.62722164 3.61948611 10 8 C10.65956843 12.92082513 10.64957582 17.35896635 8.8125 22 C5.89665229 25.21748713 3.8195149 26.77530087 -0.59375 27.3203125 C-5.00078627 27.49801558 -8.07714112 27.49988189 -12 25.375 C-15.21958695 21.55174049 -16.81350798 18.49193615 -17.4375 13.5 C-16.74645309 7.9716247 -14.37443276 5.16063211 -10.1875 1.625 C-6.37985365 -0.31615304 -4.22575274 -0.52821909 0 0 Z " fill="#030400" transform="translate(540,401)"/>
<path d="M0 0 C4.62994259 1.72488057 7.62722164 3.61948611 10 8 C10.72498874 12.4380152 11.06724746 16.86550507 9.01171875 20.9765625 C6.24576234 24.45327551 3.22517141 26.6934916 -1.18359375 27.30078125 C-5.92205558 27.32541797 -9.29752095 27.27933859 -13 24 C-16.39453687 19.22929953 -17.87159882 15.99224187 -17 10 C-13.30090764 2.74408806 -8.25966171 -1.03245771 0 0 Z " fill="#030400" transform="translate(540,448)"/>
</svg>
