<?xml version="1.0" encoding="UTF-8"?>
<svg version="1.1" xmlns="http://www.w3.org/2000/svg" width="1600" height="896">
<path d="M0 0 C528 0 1056 0 1600 0 C1600 295.68 1600 591.36 1600 896 C1072 896 544 896 0 896 C0 600.32 0 304.64 0 0 Z " fill="#C3F729" transform="translate(0,0)"/>
<path d="M0 0 C0.9075 0.68320312 1.815 1.36640625 2.75 2.0703125 C31.72337755 24.74887886 51.93115702 56.37527139 61 92 C61.19609863 92.76489746 61.39219727 93.52979492 61.59423828 94.31787109 C71.72337207 135.77029513 63.18024258 180.88030871 41.62792969 217.31982422 C27.5383218 239.95766934 8.05108246 259.5796541 -15 273 C-15.6408252 273.37624512 -16.28165039 273.75249023 -16.94189453 274.14013672 C-45.63446651 290.76481472 -76.23258948 296.56957667 -109 296 C-110.28132812 295.98324219 -111.56265625 295.96648437 -112.8828125 295.94921875 C-123.93339656 295.52419629 -134.38324758 292.91582602 -145 290 C-146.15072998 289.6891748 -146.15072998 289.6891748 -147.32470703 289.37207031 C-166.40234809 284.07061848 -184.58083654 274.39252705 -200 262 C-200.55864746 261.55269531 -201.11729492 261.10539062 -201.69287109 260.64453125 C-235.73495698 233.12565288 -258.47427697 194.11284345 -263.25 150.375 C-267.08362964 109.34349705 -257.87365787 72.04191105 -235.29931641 37.52441406 C-234 36 -234 36 -231 35 C-229.30859375 36.1171875 -229.30859375 36.1171875 -227.4375 37.875 C-226.73496094 38.52210938 -226.03242187 39.16921875 -225.30859375 39.8359375 C-224.54675781 40.55007813 -223.78492188 41.26421875 -223 42 C-221.33608963 43.50305691 -219.66934987 45.00298671 -218 46.5 C-216.7315625 47.6446875 -216.7315625 47.6446875 -215.4375 48.8125 C-212.67881248 51.28824521 -209.88893061 53.72582887 -207.09375 56.16015625 C-203.02704588 59.73369663 -199.01654397 63.3702953 -195 67 C-196.37208355 70.66360453 -198.03058227 74.0977572 -199.81762695 77.56933594 C-214.54271704 106.19673342 -217.17623844 137.29121056 -207.375 168 C-197.39938562 197.30613823 -177.22591402 219.53961384 -150 233.8125 C-139.86814281 238.67212381 -129.14728085 242.37514211 -118 244 C-117.23945312 244.11085938 -116.47890625 244.22171875 -115.6953125 244.3359375 C-86.2007202 247.91397001 -57.34315372 241.03636192 -33 224 C-32.25621094 223.48050781 -31.51242187 222.96101562 -30.74609375 222.42578125 C-6.32443345 204.38258679 8.87263907 177.01085724 13.60522461 147.20092773 C14.26128873 141.88141214 14.34054096 136.60462139 14.3125 131.25 C14.30686035 130.11183838 14.3012207 128.97367676 14.29541016 127.80102539 C13.92191595 101.765521 4.42458341 78.04931906 -12 58 C-12.68578125 57.14921875 -13.3715625 56.2984375 -14.078125 55.421875 C-31.08881172 35.3870662 -54.80480093 24.54521876 -80 19 C-80.76618652 18.8249292 -81.53237305 18.6498584 -82.32177734 18.46948242 C-110.74920778 13.48626011 -140.24245389 21.2513717 -164 37 C-168.28849778 40.15994573 -172.44368836 43.3782493 -176.13671875 47.2265625 C-178 49 -178 49 -180.3125 49.1875 C-183.69661662 47.69219266 -185.60662045 45.62347573 -188.125 42.953125 C-190.55460318 40.42228835 -193.17755507 38.17274746 -195.83203125 35.8828125 C-199.10557499 33.03984298 -202.31220688 30.12391141 -205.5234375 27.2109375 C-208.4861864 24.56595978 -211.52783417 22.02268114 -214.6015625 19.5078125 C-216 18 -216 18 -216 15 C-195.27990365 -12.10879272 -153.91607978 -27.99139933 -121.27172852 -32.5168457 C-78.10603999 -37.80526434 -34.46856853 -26.50259583 0 0 Z " fill="#000100" transform="translate(1131,351)"/>
<path d="M0 0 C0.91394531 0.70898438 1.82789063 1.41796875 2.76953125 2.1484375 C30.68199283 24.27076041 49.94006569 55.674235 59 90 C59.31541748 91.1451709 59.31541748 91.1451709 59.63720703 92.31347656 C63.93413779 108.47374664 67.11493378 133.72848696 62 150 C55.97676111 149.34120825 50.15985128 148.25783537 44.25 146.93359375 C43.35128174 146.73524429 42.45256348 146.53689484 41.52661133 146.33253479 C38.6836394 145.70426832 35.84181667 145.07096922 33 144.4375 C31.06127193 144.00812923 29.12247051 143.57908946 27.18359375 143.15039062 C22.45487258 142.10408571 17.72717469 141.05326885 13 140 C12.97632858 139.3400705 12.95265717 138.68014099 12.92826843 138.00021362 C11.64640786 102.74513419 3.5850799 75.11322015 -21 49 C-21.55042969 48.38511719 -22.10085938 47.77023437 -22.66796875 47.13671875 C-38.93352038 29.66631144 -65.77272452 18.03737328 -89.28466797 16.83154297 C-103.42569901 16.37538068 -117.27418963 16.29595538 -131 20 C-132.0828125 20.26683594 -133.165625 20.53367187 -134.28125 20.80859375 C-147.22761848 24.3437065 -159.428565 30.77777278 -170 39 C-170.89074219 39.67675781 -171.78148437 40.35351562 -172.69921875 41.05078125 C-196.58207055 59.80398287 -210.92989699 87.09216823 -215 117 C-216.60874193 138.0931843 -213.86315522 157.79281326 -205 177 C-204.51402344 178.06863281 -204.02804687 179.13726563 -203.52734375 180.23828125 C-200.30904565 186.99241621 -196.53298441 193.05510242 -192 199 C-191.3090625 199.9075 -190.618125 200.815 -189.90625 201.75 C-172.6304227 223.64893601 -149.53609458 235.20248809 -123 242 C-122.09362793 242.27614136 -122.09362793 242.27614136 -121.16894531 242.55786133 C-96.64792336 247.55646227 -70.89587725 241.84325275 -49 231 C-47.97132813 230.505 -46.94265625 230.01 -45.8828125 229.5 C-20.88196589 216.74594492 -2.38624347 193.34910521 6.5 167 C7.00436513 165.33464911 7.50516971 163.66820885 8 162 C18.36428839 163.542029 28.53616816 165.81949971 38.75 168.125 C40.42962053 168.50160089 42.10930761 168.87790511 43.7890625 169.25390625 C47.86014923 170.16585716 51.9303181 171.08180115 56 172 C57.57091408 176.85721749 55.91296865 180.28761988 54.25 184.9375 C53.93780518 185.81486816 53.62561035 186.69223633 53.30395508 187.59619141 C45.1939805 209.49875874 32.52353566 227.78887646 17 245 C16.32453125 245.74894531 15.6490625 246.49789063 14.953125 247.26953125 C5.45828368 257.23099938 -6.09056986 265.23113745 -18 272 C-18.63244629 272.36335449 -19.26489258 272.72670898 -19.91650391 273.10107422 C-41.50042772 285.40102594 -66.22659077 294.0541657 -91.27734375 294.203125 C-92.04695938 294.20882507 -92.81657501 294.21452515 -93.60951233 294.22039795 C-95.2322556 294.22978632 -96.85501741 294.23635718 -98.4777832 294.24023438 C-100.9002637 294.24985216 -103.32186159 294.28089754 -105.74414062 294.3125 C-147.31585237 294.59329866 -187.03760955 276.4617114 -216.40332031 247.56591797 C-217.78055229 246.21521982 -219.1811562 244.88842853 -220.5859375 243.56640625 C-245.81003785 219.44862609 -259.47125792 185.37681679 -264.61450195 151.50683594 C-264.89406497 149.6888796 -265.20499567 147.87565814 -265.53491211 146.06616211 C-271.51366314 106.65034365 -257.55405249 64.37995997 -234.52929688 32.68017578 C-226.97510625 22.52832766 -218.85018365 13.004323 -209 5 C-208.00613281 4.16855469 -207.01226562 3.33710938 -205.98828125 2.48046875 C-186.76236756 -13.33761033 -164.05236878 -24.47092188 -140 -30.6875 C-139.18104248 -30.90237061 -138.36208496 -31.11724121 -137.51831055 -31.33862305 C-90.7454635 -42.96789936 -37.23455178 -29.56413252 0 0 Z " fill="#000100" transform="translate(647,352)"/>
<path d="M0 0 C1.21171875 -0.02578125 2.4234375 -0.0515625 3.671875 -0.078125 C8.82307374 0.39425567 12.06048993 1.96404317 15.5625 5.75 C18.15601755 9.59224823 18.37862968 12.46974062 18.39717102 16.9992218 C18.40432632 18.19789886 18.41148163 19.39657593 18.41885376 20.63157654 C18.42154266 21.94852005 18.42423157 23.26546356 18.42700195 24.62231445 C18.43326776 26.02187264 18.43991466 27.42142917 18.44691467 28.82098389 C18.46794182 33.41840459 18.4783151 38.01582557 18.48828125 42.61328125 C18.49232917 44.1965302 18.4964461 45.77977898 18.50063133 47.36302757 C18.51967926 54.80075456 18.53391169 62.23847164 18.5422433 69.67621833 C18.55201768 78.25999146 18.57834393 86.84350686 18.61874419 95.42718917 C18.64890599 102.06338415 18.66371219 108.69950525 18.66702431 115.33576745 C18.66937455 119.29872747 18.6783314 123.26141202 18.70348549 127.22429848 C18.7267729 130.95327581 18.73099706 134.68179642 18.72072411 138.41082764 C18.71999304 140.42787079 18.7390791 142.44489078 18.75878906 144.46183777 C18.69574159 155.42222212 18.69574159 155.42222212 14.25 160.25 C10.94798475 159.6629951 9.2610359 158.65207313 6.859375 156.3359375 C6.23595215 155.74280762 5.6125293 155.14967773 4.97021484 154.53857422 C4.32004395 153.90709473 3.66987305 153.27561523 3 152.625 C1.65444156 151.34291436 0.30809517 150.06165514 -1.0390625 148.78125 C-1.68133789 148.16765625 -2.32361328 147.5540625 -2.98535156 146.921875 C-8.72915395 141.33263691 -8.72915395 141.33263691 -15.31848145 136.88302612 C-19.20584832 132.67350097 -18.43089997 128.22201426 -18.36523438 122.69189453 C-18.37078339 121.51101257 -18.3763324 120.33013062 -18.38204956 119.11346436 C-18.39183688 115.87748272 -18.37924044 112.64254745 -18.35576439 109.40666437 C-18.33564123 106.01687104 -18.34153586 102.62711255 -18.34387207 99.23727417 C-18.3438185 93.54264326 -18.32406595 87.84834413 -18.29199219 82.15380859 C-18.25513455 75.57813041 -18.24631174 69.00288737 -18.2532897 62.42711937 C-18.25960535 56.09459143 -18.24881858 49.76221213 -18.22932434 43.4297142 C-18.22116769 40.73846181 -18.2184376 38.04728559 -18.22001648 35.35602188 C-18.21821836 31.59273825 -18.19683234 27.83007149 -18.16992188 24.06689453 C-18.17285248 22.95396027 -18.17578308 21.841026 -18.17880249 20.69436646 C-18.10891409 14.35814845 -17.74617568 9.45964367 -13.21484375 4.60546875 C-8.35843133 0.8917416 -6.12284595 0.07750438 0 0 Z " fill="#020300" transform="translate(890.75,197.75)"/>
<path d="M0 0 C1.74633825 0.20811285 3.49214989 0.42098376 5.23632812 0.64648438 C7.31139243 0.91191663 9.38863901 1.16037803 11.46679688 1.40039062 C38.18684978 4.76553527 38.18684978 4.76553527 44.23828125 12.1875 C46.93862155 16.51340968 48.83841225 21.15271923 50.69335938 25.89160156 C53.07636398 31.56058786 56.25902401 36.7969213 59.3125 42.125 C60.59110266 44.42233338 61.86581373 46.72183678 63.13671875 49.0234375 C64.09263916 50.74965332 64.09263916 50.74965332 65.06787109 52.51074219 C65.70547363 53.66219727 66.34307617 54.81365234 67 56 C75.33793754 71.04771947 83.70877087 86.07456248 92.1953125 101.0390625 C92.66300049 101.86913818 93.13068848 102.69921387 93.61254883 103.55444336 C94.54784168 105.20301428 95.49592101 106.84438806 96.45581055 108.47875977 C96.90996338 109.26307373 97.36411621 110.0473877 97.83203125 110.85546875 C98.23655518 111.54278076 98.6410791 112.23009277 99.05786133 112.93823242 C100.73348552 116.60515295 100.7704753 120.08835615 100 124 C97.11132417 130.40532467 91.12318623 133.93840689 85 137 C82.828125 137.23828125 82.828125 137.23828125 80.25 137.3125 C79.40953125 137.34988281 78.5690625 137.38726563 77.703125 137.42578125 C73.92957137 136.83139202 71.94868224 135.41682443 69 133 C67.34672457 130.68950377 65.9804547 128.53419392 64.625 126.0625 C64.2127417 125.33724121 63.8004834 124.61198242 63.37573242 123.86474609 C61.89960238 121.25262038 60.44894243 118.62730193 59 116 C58.41395996 114.94441895 57.82791992 113.88883789 57.22412109 112.80126953 C53.85210779 106.72713916 50.49587961 100.64453548 47.15234375 94.5546875 C43.24699187 87.44172101 39.3170981 80.34268474 35.375 73.25 C34.75866699 72.14108398 34.14233398 71.03216797 33.50732422 69.88964844 C29.90755095 63.41782652 26.29982761 56.95050176 22.68066406 50.48950195 C21.52773084 48.42956229 20.37729762 46.3682212 19.22949219 44.30541992 C16.22016519 38.90762222 13.1570372 33.55032835 10.01171875 28.23046875 C9.36146729 27.11430176 8.71121582 25.99813477 8.04125977 24.84814453 C6.80023541 22.72026763 5.54257937 20.60196857 4.26538086 18.49560547 C0.57564439 12.11947726 -0.89143075 7.37300152 0 0 Z " fill="#010100" transform="translate(717,528)"/>
<path d="M0 0 C5.11395556 2.72066951 9.05846542 6.80820877 10.89453125 12.31640625 C11.73521451 18.40535499 10.86755831 22.55642868 7.328125 27.58984375 C3.96135124 31.6446503 0.7211567 34.04572469 -4.59375 34.5546875 C-10.65203228 34.71389547 -14.40503339 34.55826255 -19.10546875 30.31640625 C-23.65029333 25.26660116 -25.5957068 21.39015446 -25.41796875 14.625 C-24.70623337 9.36705487 -21.92551232 5.8256348 -17.98046875 2.44140625 C-12.63754829 -1.50770887 -6.40773454 -2.08043329 0 0 Z " fill="#030400" transform="translate(807.10546875,387.68359375)"/>
<path d="M0 0 C4.15742058 1.79738108 7.52122569 4.16863044 9.98046875 8.01171875 C12.30999817 14.39913813 11.89506571 21.75749744 9.328125 27.9609375 C4.58748697 32.46454363 0.2331829 34.55373791 -6.359375 34.7109375 C-11.74648676 34.45558511 -14.80151482 33.57882232 -18.859375 29.8984375 C-23.72441955 24.50744218 -23.60732887 20.7879466 -23.4765625 13.7265625 C-23.00815643 8.51404372 -21.36058076 6.1787981 -17.44140625 2.87890625 C-11.81996398 -1.1941148 -6.64174449 -2.03074921 0 0 Z " fill="#020200" transform="translate(806.171875,448.6640625)"/>
</svg>
