<svg xmlns="http://www.w3.org/2000/svg" width="110.503" height="32" viewBox="0 0 110.503 32"><path d="M8 0H24A8 8 0 0 1 32 8V32H8A8 8 0 0 1 0 24V8A8 8 0 0 1 8 0Z" fill="#C4F82A"/><g fill="none" stroke-width="3" stroke-linecap="round" stroke="#0A0A0A"><circle cx="16" cy="12.8" r="6"/><path d="M22 6.8V24.6"/></g><g transform="translate(41,2.47641) scale(0.0299194) translate(-39,719)"><path d="M551 150H423V-73Q401 -33 359.5 -10.5Q318 12 267 12Q191 12 140.5 -26Q90 -64 64.5 -127Q39 -190 39 -267Q39 -344 64 -407.5Q89 -471 139.5 -508.5Q190 -546 266 -546Q319 -546 361 -522.5Q403 -499 426 -454L428 -534H551ZM297 -92Q356 -92 389.5 -136Q423 -180 423 -267Q423 -354 389 -398Q355 -442 297 -442Q239 -442 205.5 -395.5Q172 -349 172 -267Q172 -185 205.5 -138.5Q239 -92 297 -92ZM943 12Q887 12 845 -12Q803 -36 781 -79L778 0H656V-710H784V-458Q805 -494 846.5 -520Q888 -546 943 -546Q1012 -546 1062.5 -511.5Q1113 -477 1140.5 -414.5Q1168 -352 1168 -267Q1168 -182 1140.5 -119.5Q1113 -57 1062.5 -22.5Q1012 12 943 12ZM914 -92Q969 -92 1002 -138.5Q1035 -185 1035 -267Q1035 -350 1002.5 -396Q970 -442 915 -442Q853 -442 818.5 -396Q784 -350 784 -267Q784 -185 818.5 -138.5Q853 -92 914 -92ZM1242 0V-534H1362L1365 -430Q1381 -484 1412 -509Q1443 -534 1493 -534H1542V-424H1492Q1431 -424 1400.5 -396.5Q1370 -369 1370 -308V0ZM1616 0V-534H1744V0ZM1614 -605V-719H1747V-605ZM1826 0 2018 -272 1833 -534H1972L2094 -352L2214 -534H2355L2171 -271L2362 0H2223L2096 -192L1968 0Z" fill="#0A0A0A"/></g></svg>